#!OML:ASF Y:\EmotionMaleHayes\Project 1\Capture day 1\Session 1\Male1.ASF
:FULLY-SPECIFIED
:DEGREES
349
root -18.8905 16.9717 1.2554 240.673 100.418 247.234
lowerback 11.8871 1.96995 -12.4542
upperback 2.10766 1.0762 -2.71578
thorax -4.5995 0.770155 3.93927
lowerneck -22.908 3.65242 4.54068
upperneck 14.8761 3.73837 -1.16985
head 8.48082 1.90233 -0.614677
rclavicle 1.47846e-015 -4.37326e-015
rhumerus -40.9752 5.65396 -84.8669
rradius 36.2806
rwrist -3.34339
rhand -9.69788 -33.1488
rfingers 7.12502
rthumb 16.2746 -62.4858
lclavicle 1.47846e-015 -4.37326e-015
lhumerus -26.4794 -21.7024 86.2722
lradius 41.7891
lwrist 0.257721
lhand -21.1985 -25.4108
lfingers 7.12502
lthumb 5.18265 4.50586
rfemur -10.9609 -5.49503 4.80912
rtibia 59.749
rfoot -11.6214 -2.07848
rtoes 2.59244
lfemur 10.7312 0.801056 -32.9804
ltibia 9.31911
lfoot -13.9992 3.69312
ltoes 4.31836
350
root -18.7752 16.9775 1.24235 240.459 100.453 247.057
lowerback 11.3595 1.86792 -12.6002
upperback 2.4871 1.05541 -2.62035
thorax -3.89758 0.713266 4.1418
lowerneck -23.2828 3.77475 4.66396
upperneck 14.6891 3.86371 -1.27877
head 8.48757 1.95315 -0.64979
rclavicle 3.72721e-017 6.69904e-014
rhumerus -40.6418 5.57354 -84.6394
rradius 36.1791
rwrist -3.34016
rhand -9.64578 -33.3247
rfingers 7.12502
rthumb 16.3247 -62.6576
lclavicle 3.72721e-017 6.69904e-014
lhumerus -25.2124 -21.7013 85.9257
lradius 41.9318
lwrist 0.0418528
lhand -21.1467 -25.5887
lfingers 7.12502
lthumb 5.23272 4.32671
rfemur -11.9717 -5.41788 5.14232
rtibia 58.9957
rfoot -11.9766 -1.90865
rtoes 3.44713
lfemur 11.4919 0.689934 -33.146
ltibia 8.73964
lfoot -14.0959 4.04293
ltoes 4.51514
351
root -18.6973 16.9734 1.2428 244.522 100.251 250.966
lowerback 11.9615 1.6311 -12.868
upperback 2.18623 0.580384 -2.55508
thorax -4.47943 0.524588 4.42095
lowerneck -23.2752 3.83592 4.59053
upperneck 14.8172 3.93917 -1.1132
head 8.52737 2.00348 -0.570231
rclavicle 7.54139e-015 -2.127e-014
rhumerus -41.2706 5.46391 -84.4863
rradius 36.1847
rwrist -3.37859
rhand -9.71176 -32.8426
rfingers 7.12502
rthumb 16.2612 -62.1807
lclavicle 7.54139e-015 -2.127e-014
lhumerus -24.9597 -22.0113 85.902
lradius 42.3083
lwrist 0.351366
lhand -21.0022 -25.5087
lfingers 7.12502
lthumb 5.37222 4.40322
rfemur -13.1043 -6.0493 5.36582
rtibia 58.1634
rfoot -12.1448 -2.44344
rtoes 4.51875
lfemur 11.6548 0.641979 -33.2027
ltibia 8.74857
lfoot -14.1173 3.51715
ltoes 3.70101
352
root -18.5718 16.9794 1.22273 243.376 100.392 249.775
lowerback 11.1013 1.55045 -13.0569
upperback 2.59594 0.642449 -2.40156
thorax -3.573 0.491318 4.69467
lowerneck -23.3807 3.96751 4.50169
upperneck 14.4792 4.13695 -1.10861
head 8.43219 2.08951 -0.527596
rclavicle 6.84565e-015 6.59965e-014
rhumerus -40.9889 5.75221 -84.2718
rradius 36.1688
rwrist -3.50975
rhand -9.78607 -32.7051
rfingers 7.12502
rthumb 16.1897 -62.049
lclavicle 6.84565e-015 6.59965e-014
lhumerus -23.8686 -22.0598 85.6913
lradius 42.6811
lwrist 0.810346
lhand -20.9203 -25.7102
lfingers 7.12502
lthumb 5.4513 4.19965
rfemur -14.0623 -5.84338 5.60173
rtibia 57.105
rfoot -12.7844 -2.60536
rtoes 3.3358
lfemur 12.3915 0.790815 -33.4027
ltibia 8.12177
lfoot -14.3748 3.66912
ltoes 3.26251
353
root -18.4778 16.9796 1.22226 244.346 100.136 250.691
lowerback 11.9182 1.51027 -12.8609
upperback 2.11954 0.421385 -2.4175
thorax -4.50151 0.447893 4.58989
lowerneck -23.0795 3.91411 4.50721
upperneck 14.742 4.02488 -0.82237
head 8.46326 2.07204 -0.449322
rclavicle -1.15419e-014 -9.34288e-015
rhumerus -41.9874 5.50424 -84.379
rradius 36.2054
rwrist -3.40282
rhand -9.73517 -32.7952
rfingers 7.12502
rthumb 16.2387 -62.1351
lclavicle -1.15419e-014 -9.34288e-015
lhumerus -24.0958 -22.7983 85.6851
lradius 43.1978
lwrist 1.17177
lhand -20.9422 -26.0309
lfingers 7.12502
lthumb 5.43017 3.8795
rfemur -15.0286 -5.9161 6.20266
rtibia 56.0722
rfoot -13.4391 -2.82491
rtoes 3.12656
lfemur 12.828 0.91146 -33.0941
ltibia 7.92173
lfoot -14.5698 3.22956
ltoes 3.42968
354
root -18.3876 16.9759 1.22435 246.634 100.032 252.855
lowerback 11.9807 1.35796 -13.1499
upperback 2.08982 0.17416 -2.29407
thorax -4.52498 0.333077 4.92114
lowerneck -22.9283 3.96764 4.47201
upperneck 14.6644 4.12793 -0.879553
head 8.41462 2.11243 -0.451776
rclavicle -1.87603e-015 -6.16232e-015
rhumerus -42.2158 5.59008 -84.2359
rradius 36.1304
rwrist -3.43401
rhand -9.63435 -32.5431
rfingers 7.12502
rthumb 16.3357 -61.8751
lclavicle -1.87603e-015 -6.16232e-015
lhumerus -23.6322 -23.3193 85.6432
lradius 43.6539
lwrist 1.38716
lhand -21.0876 -25.8276
lfingers 7.12502
lthumb 5.28976 4.08642
rfemur -15.9828 -6.15857 6.5234
rtibia 54.7945
rfoot -13.7866 -2.92682
rtoes 3.81114
lfemur 13.116 1.01138 -33.0104
ltibia 7.7931
lfoot -14.6541 2.7372
ltoes 3.1155
355
root -18.2822 16.9755 1.21459 248.301 100.193 254.364
lowerback 11.6332 1.20683 -13.5063
upperback 2.2079 0.00467736 -2.25601
thorax -4.17099 0.229962 5.1876
lowerneck -23.1356 4.1844 4.74937
upperneck 14.4921 4.36518 -1.10906
head 8.40831 2.21276 -0.538529
rclavicle -6.03808e-015 -4.4329e-014
rhumerus -42.2641 5.74637 -84.1261
rradius 36.1482
rwrist -3.42978
rhand -9.49476 -32.4415
rfingers 7.12502
rthumb 16.4701 -61.7624
lclavicle -6.03808e-015 -4.4329e-014
lhumerus -22.9268 -23.6485 85.4873
lradius 44.0078
lwrist 1.54041
lhand -20.9298 -25.6085
lfingers 7.12502
lthumb 5.4421 4.30163
rfemur -16.9386 -6.31225 6.51638
rtibia 53.4681
rfoot -14.103 -2.99402
rtoes 3.20899
lfemur 13.4516 0.873494 -33.3971
ltibia 7.5426
lfoot -14.7434 2.70949
ltoes 2.51418
356
root -18.1773 16.9773 1.20808 249.232 100.397 255.151
lowerback 11.4535 1.12131 -13.8687
upperback 2.22601 -0.117387 -2.24269
thorax -4.0253 0.165284 5.42087
lowerneck -22.9402 4.16452 4.70008
upperneck 14.2795 4.35893 -1.08637
head 8.30139 2.20964 -0.528879
rclavicle -9.98893e-015 -2.94201e-014
rhumerus -42.4287 5.78668 -84.0739
rradius 36.1272
rwrist -3.3499
rhand -9.39554 -32.5971
rfingers 7.12502
rthumb 16.5657 -61.9101
lclavicle -9.98893e-015 -2.94201e-014
lhumerus -22.3061 -23.92 85.3162
lradius 44.2797
lwrist 1.77141
lhand -20.4355 -25.8395
lfingers 7.12502
lthumb 5.91936 4.05779
rfemur -17.9151 -6.35676 6.55797
rtibia 52.179
rfoot -14.3726 -3.13206
rtoes 1.45624
lfemur 13.7458 0.88132 -33.7199
ltibia 7.39432
lfoot -14.8545 2.60068
ltoes 2.37213
357
root -18.0765 16.9745 1.20851 251.161 100.623 256.97
lowerback 11.6167 1.00934 -14.25
upperback 2.07828 -0.35678 -2.32923
thorax -4.22557 0.0727432 5.57392
lowerneck -22.8624 4.20022 4.77503
upperneck 14.2564 4.35983 -0.941131
head 8.27911 2.23066 -0.492855
rclavicle 4.02539e-015 4.24405e-014
rhumerus -42.8531 5.75588 -84.1787
rradius 35.9998
rwrist -3.26105
rhand -9.41729 -32.4803
rfingers 7.12502
rthumb 16.5447 -61.795
lclavicle 4.02539e-015 4.24405e-014
lhumerus -22.0116 -24.2213 85.1505
lradius 44.564
lwrist 1.77042
lhand -20.453 -25.9373
lfingers 7.12502
lthumb 5.9025 3.96046
rfemur -18.6654 -6.63345 6.48581
rtibia 50.6489
rfoot -14.4912 -3.26644
rtoes 0.228904
lfemur 14.0505 1.09581 -33.9732
ltibia 7.30341
lfoot -14.9719 2.0406
ltoes 2.94172
